<svg id="Capa_4" data-name="Capa 4" xmlns="http://www.w3.org/2000/svg" viewBox="0 0 1024 1024"><defs><style>.cls-1,.cls-2{fill:#fff;}.cls-2,.cls-3{fill-rule:evenodd;}.cls-3{fill:#5b0404;}</style></defs><title>logo-vinoli-web</title><polygon class="cls-1" points="89.15 659.85 195.24 632.85 172.09 659.85 218.39 744.72 249.25 675.28 228.03 650.21 295.54 661.78 266.61 677.21 214.53 804.52 135.45 671.43 89.15 659.85"/><polygon class="cls-1" points="278.18 636.71 382.34 636.71 351.48 656 361.12 785.23 395.84 800.66 305.19 804.52 334.12 789.09 322.55 657.92 278.18 636.71"/><polygon class="cls-1" points="388.13 636.71 447.92 636.71 517.36 713.86 511.58 648.28 469.14 636.71 554.01 632.85 528.94 650.21 540.51 785.23 436.35 675.28 446 758.23 494.22 777.51 390.06 779.44 420.92 758.23 413.2 659.85 388.13 636.71"/><path class="cls-1" d="M636,648.28c-43.15,0-78.12,28.93-78.12,64.62s35,64.62,78.12,64.62,74.26-28,74.26-63.66S679.13,648.28,636,648.28Zm1,111.88c-22.9,0-44.36-24.16-44.36-49.19s18.57-45.33,41.47-45.33,41.47,27.05,41.47,52.08S659.86,760.16,637,760.16Z"/><polygon class="cls-1" points="685.17 609.7 793.19 609.7 758.47 627.06 770.05 752.44 820.2 752.44 835.63 690.72 843.34 765.94 704.46 773.66 741.11 752.44 723.75 625.13 685.17 609.7"/><polygon class="cls-1" points="822.13 627.06 918.57 627.06 889.64 642.49 899.28 767.87 934 783.3 843.34 787.16 872.28 773.66 862.63 642.49 822.13 627.06"/><path class="cls-2" d="M595,427.47c-37.18-25.28-45.77-77.56-36.79-105.51l87.66-1.27c8.4,28.2,2.27,82.76-35.41,106.93Z"/><path class="cls-2" d="M561.65,543.58H641.8a1.53,1.53,0,0,0,1.5-1,1.28,1.28,0,0,0-.7-1.53c-6.62-3.45-22.43-5.89-40.88-5.89s-34.25,2.44-40.88,5.89a1.29,1.29,0,0,0-.7,1.53,1.53,1.53,0,0,0,1.51,1Z"/><rect class="cls-1" x="594.74" y="412.16" width="15.46" height="125.2"/><path class="cls-2" d="M534.26,253.78V161.7h1.13a2.66,2.66,0,0,0,2.81-2.47v-8.87a2.66,2.66,0,0,0-2.81-2.47h-1.13v-6.21l0-.08v-.07l0-.08v-.08l0-.05,0-.08,0-.08,0-.07,0-.08,0,0,0-.05,0-.08,0-.08,0-.05,0-.08h0c0-.07-.1-.15-.15-.25a3.37,3.37,0,0,0-1.71-1.19l-.07,0-.08,0-.08,0-.07,0h-.08l-.08,0h-.1l-.08,0h-.08l-.1,0H497.56l-.1,0h-.16l-.25.05,0,0a5.09,5.09,0,0,0-3.89,2.89l-.05.1a4.84,4.84,0,0,0-.23.85v.1l0,.13v4.77h-1.13a2.66,2.66,0,0,0-2.81,2.47v8.87a2.66,2.66,0,0,0,2.81,2.47h1.13v92.08c0,16.93-40.23,70-39.86,97.35l.15,9.49,2.11,123.69.78,46.36c.07,7,6.67,12.73,14.68,12.73h85.95c8,0,14.61-5.69,14.71-12.73l2.73-179.54C573.32,324.64,534.26,270.19,534.26,253.78Z"/><path class="cls-3" d="M538,367.7V477.23c0,3.89-4,7.08-8.85,7.08H455.27l-2.11-123.69h76C534.05,360.62,538,363.81,538,367.7Z"/><polygon class="cls-1" points="114.03 890.65 92.4 890.65 92.4 838.54 95.73 838.54 95.73 887.06 114.03 887.06 114.03 890.65"/><rect class="cls-1" x="154.5" y="837.44" width="3.33" height="53.22"/><path class="cls-1" d="M223.79,888.44a25,25,0,1,1,25-25A25,25,0,0,1,223.79,888.44Zm0-46.57a21.62,21.62,0,1,0,21.63,21.62A21.65,21.65,0,0,0,223.79,841.87Z"/><path class="cls-1" d="M245.42,890.65a18.85,18.85,0,1,1,0-37.69v3.32a15.53,15.53,0,1,0,0,31.05Z"/><path class="cls-1" d="M314.71,890.66c-13.75,0-24.94-12.35-24.94-27.53V837.44h3.32v25.69c0,13.15,9.7,23.86,21.62,23.86s21.63-10.71,21.63-23.86V837.44h3.32v25.69C339.66,878.31,328.47,890.66,314.71,890.66Z"/><polygon class="cls-1" points="478.6 890.65 474.93 890.65 474.93 837.44 486.56 837.44 486.56 841.11 478.6 841.11 478.6 890.65"/><path class="cls-1" d="M486.56,875.36v-3.67a15.29,15.29,0,0,0,0-30.58v-3.67a19,19,0,1,1,0,37.92Z"/><path class="cls-1" d="M505.52,890.65h-3.67a15.31,15.31,0,0,0-15.29-15.29v-3.67A19,19,0,0,1,505.52,890.65Z"/><path class="cls-1" d="M407.3,890.66a26.62,26.62,0,1,1,26.61-26.61A26.64,26.64,0,0,1,407.3,890.66Zm0-49.83a23.22,23.22,0,1,0,23.21,23.22A23.24,23.24,0,0,0,407.3,840.83Z"/><polygon class="cls-1" points="837.85 890.65 834.18 890.65 834.18 837.44 845.8 837.44 845.8 841.11 837.85 841.11 837.85 890.65"/><path class="cls-1" d="M845.8,875.36v-3.67a15.29,15.29,0,1,0,0-30.58v-3.67a19,19,0,1,1,0,37.92Z"/><path class="cls-1" d="M864.76,890.65h-3.67a15.31,15.31,0,0,0-15.29-15.29v-3.67A19,19,0,0,1,864.76,890.65Z"/><path class="cls-1" d="M767.1,890.65a26.06,26.06,0,1,1,26-26A26.08,26.08,0,0,1,767.1,890.65Zm0-48.78a22.73,22.73,0,1,0,22.73,22.73A22.75,22.75,0,0,0,767.1,841.87Z"/><path class="cls-1" d="M603.89,890.65h-.32c-8.74-.15-15.71-6.58-15.54-14.33l3.4.06c-.14,6.09,5.34,11.14,12.21,11.26h.24c6.76,0,12.32-4.81,12.46-10.83s-5.35-11.14-12.22-11.26h-.24c-8.74,0-15.85-6.3-15.85-14.06s7.11-14,15.85-14,15.86,6.3,15.86,14h-3.4c0-6.09-5.59-11-12.46-11s-12.45,4.95-12.45,11,5.58,11,12.45,11h.28c8.77.15,15.74,6.58,15.57,14.33S612.48,890.65,603.89,890.65Z"/><rect class="cls-1" x="660.65" y="837.99" width="39.92" height="3.47"/><rect class="cls-1" x="678.95" y="839.72" width="3.33" height="50.93"/><path class="cls-1" d="M932.86,890.65a26.61,26.61,0,1,1,0-53.21v3.39a23.22,23.22,0,0,0,0,46.43Z"/><rect class="cls-1" x="907.95" y="862.35" width="18.12" height="3.4"/></svg>