<svg id="Capa_1" data-name="Capa 1" xmlns="http://www.w3.org/2000/svg" viewBox="0 0 1024 1024"><defs><style>.cls-1{fill:#fff;fill-rule:evenodd;}</style></defs><title>mapa2</title><path class="cls-1" d="M591.86,108.91a229.7,229.7,0,0,0-28.61,14.88c-9.15,6.86-18.3,13.72-26.3,20.57-6.9,8-13.74,16-20.61,25.19-5.71,9.14-11.43,18.29-14.86,28.61a89.79,89.79,0,0,0-9.14,29.72,153.34,153.34,0,0,0-3.44,32.05c0,43.46,36.58,123.56,74.35,193.34,34.31,65.2,68.66,120.11,74.36,130.43h1.15v1.13L639.9,586l4.57,8,11.47,17.14,9.15-16,1.13,1.15L672,584.83c2.28-4.59,151-240.25,151-324.9v-18.3h-1.14l-2.29-16c-2.28-9.15-5.7-18.3-9.14-27.44-9.14-20.61-20.57-38.9-36.61-53.8-6.86-6.85-16-13.71-25.15-20.57a185.18,185.18,0,0,0-29.76-14.88c-9.14-4.57-19.47-6.88-30.89-9.17a153,153,0,0,0-32-3.43,163.76,163.76,0,0,0-33.19,3.43c-10.32,2.29-20.6,4.6-30.89,9.17Zm64.08,26.31a185.84,185.84,0,0,1,25.14,2.29,95.91,95.91,0,0,1,24,6.85c6.85,3.45,14.86,6.88,21.71,11.47a134.43,134.43,0,0,1,19.48,16,131.48,131.48,0,0,1,16,19.45c4.58,5.72,8,13.74,11.44,21.75,3.43,6.85,5.71,14.85,8,22.87,1.13,8,2.29,16,2.29,24h0c0,14.87-6.86,37.75-17.15,64.06-12.57,33.16-32,70.93-51.47,107.54-11.43,21.74-22.9,42.32-33.18,60.64-10.29,17.17-19.44,33.16-26.3,45.74l-18.33-32c-13.71-21.75-28.6-48-42.32-74.37C578.15,398.34,561,364,548.38,333.15c-12.56-29.76-20.61-56.07-20.61-73.22,0-8,1.19-16,2.28-24s4.61-16,6.9-22.87a98.87,98.87,0,0,1,12.58-21.75,130.92,130.92,0,0,1,16-19.45c5.76-5.71,11.46-11.43,19.47-16a130.81,130.81,0,0,1,21.72-11.47,95.18,95.18,0,0,1,24-6.85c8-1.15,16-2.29,25.19-2.29Z"/><path class="cls-1" d="M655.94,184.41c-25.19,0-46.93,10.3-64.08,26.32-16,16-26.33,37.76-26.33,61.77s10.33,45.77,26.33,61.8c17.15,16,38.89,26.3,64.08,26.3a90.19,90.19,0,0,0,62.9-26.3c16-16,26.34-37.76,26.34-61.8s-10.34-45.76-26.34-61.77a90.08,90.08,0,0,0-62.9-26.32Zm0,25.19a63.29,63.29,0,0,1,44.62,18.28,61,61,0,0,1,0,89.25,63.23,63.23,0,0,1-44.62,18.31c-18.33,0-34.32-6.86-45.8-18.31a63.61,63.61,0,0,1,0-89.25c11.48-11.43,27.47-18.28,45.8-18.28Z"/><path class="cls-1" d="M276.12,311.4a312.63,312.63,0,0,1,124.66-74.35,466.19,466.19,0,0,0-60.62,119H238.36a228.93,228.93,0,0,1,37.76-44.61ZM364.21,356a438.33,438.33,0,0,1,72-128.13l19.48-2.28,1.15-4.58a119,119,0,0,1,4.56-19.43c-168.17,16-299.73,155.56-299.73,324.89,0,180.74,148.7,327.21,332.92,327.21s334-146.47,334-327.21c0-40.05-8-76.64-20.57-112.1l-14.85,30.88C798.93,467,803.51,491,804.65,515H755.46L741.7,537.91h62.95c-2.3,50.36-17.15,97.27-40,138.45v-2.29H657.05l-1.11,3.43-2.33-3.43h-5.72c1.16-1.14,1.16-3.43,2.3-4.57L633,642c-2.29,11.43-4.57,21.75-9.14,32H506.06V537.91h64L556.39,515H506.06v-93.8c-10.3-20.61-20.62-43.47-29.77-65.23Zm-6.86,21.76h125.8V515H335.6c1.13-48,8-93.8,21.75-137.27ZM506.06,696.94H617a429.2,429.2,0,0,1-72,129.27,214.15,214.15,0,0,1-38.89,3.42Zm73.22,121.27A465.11,465.11,0,0,0,641,696.94H750.89a231,231,0,0,1-37.76,44.62c-36.62,35.46-82.38,62.93-133.85,76.65ZM224.61,377.77h108.7Q314.46,443,312.69,515H184.56a299.47,299.47,0,0,1,40.05-137.27ZM184.56,537.91H312.69c1.14,48.08,8.05,93.84,20.62,136.16H224.61c-24-40-37.76-86.94-40.05-136.16Zm53.8,159h101.8a466.81,466.81,0,0,0,60.62,119c-48-14.85-90.38-41.18-124.66-74.36a227.81,227.81,0,0,1-37.76-44.62Zm97.24-159H483.15V674.07H357.35C343.59,631.75,336.73,586,335.6,537.91Zm28.61,159H483.15V829.63a211.78,211.78,0,0,1-46.91-5.7c-29.7-36.62-54.88-78.94-72-127Z"/></svg>