<svg id="Capa_1" data-name="Capa 1" xmlns="http://www.w3.org/2000/svg" viewBox="0 0 1024 1024"><defs><style>.cls-1{fill:#fff;fill-rule:evenodd;}</style></defs><title>mapa</title><path class="cls-1" d="M240,435.94h155.3L521.92,655.25,647.25,435.94H803.87c5.45,0,8.16,5.5,10.89,10.94L971.38,896.35c2.72,5.44-4.08,10.89-9.52,10.89H83.34c-6.81,0-13.61-5.45-10.88-10.89L229.08,446.88c2.72-5.44,5.44-10.94,10.89-10.94Z"/><path class="cls-1" d="M521.92,91.4c-96.71,0-175.67,79-175.67,175.68,0,31.35,9.52,61.28,24.49,87.18L521.92,617.13,671.74,357c16.33-25.85,24.49-57.19,24.49-89.89C696.23,170.37,618.63,91.4,521.92,91.4Zm1.36,279.2c-54.48,0-99.43-45-99.43-100.81,0-54.47,44.95-99.42,99.43-99.42a99.1,99.1,0,0,1,99.42,99.42C622.7,325.64,579.12,370.6,523.28,370.6Z"/></svg>