<svg id="Capa_1" data-name="Capa 1" xmlns="http://www.w3.org/2000/svg" viewBox="0 0 1024 1024"><defs><style>.cls-1{fill:#fff;fill-rule:evenodd;}</style></defs><title>phone2</title><path class="cls-1" d="M633.49,758H315.16V257.82H633.49ZM474.11,816.94h0a22.93,22.93,0,0,1-22.92-23.11c0-10.23,10.24-20.47,22.92-20.47,13.09,0,23.33,10.24,23.33,20.47a23,23,0,0,1-23.33,23.11Zm-46-597.59h92.49a5.68,5.68,0,0,1,5.1,5.12,5.5,5.5,0,0,1-5.1,5.1H428.08a5.34,5.34,0,0,1-5.12-5.1,5.51,5.51,0,0,1,5.12-5.12ZM620.59,186H327.83c-23.12,0-43.57,20.67-43.57,46.23v561.6c0,25.56,20.45,43.56,43.57,43.56H620.59c23.12,0,43.79-18,43.79-43.56V232.23c0-25.56-20.67-46.23-43.79-46.23Z"/></svg>